<mxfile host="app.diagrams.net" agent="Mozilla/5.0 (X11; Linux x86_64) AppleWebKit/537.36 (KHTML, like Gecko) Chrome/127.0.0.0 Safari/537.36" version="24.7.6">
  <diagram name="Page-1" id="6aOdifo-nCPCul-ZnsPv">
    <mxGraphModel dx="1243" dy="502" grid="1" gridSize="10" guides="1" tooltips="1" connect="1" arrows="1" fold="1" page="1" pageScale="1" pageWidth="827" pageHeight="1169" math="0" shadow="0">
      <root>
        <mxCell id="0" />
        <mxCell id="1" parent="0" />
        <mxCell id="IXrwVdHXhNs5LP9SRVdd-6" value="Quantum&amp;nbsp; &amp;nbsp;Pograms&amp;nbsp;&amp;nbsp;" style="strokeWidth=2;html=1;shape=mxgraph.flowchart.multi-document;whiteSpace=wrap;sketch=1;hachureGap=4;jiggle=2;curveFitting=1;fontFamily=Architects Daughter;fontSource=https%3A%2F%2Ffonts.googleapis.com%2Fcss%3Ffamily%3DArchitects%2BDaughter;fontStyle=0;fontSize=29;" vertex="1" parent="1">
          <mxGeometry x="-537.5" y="680" width="185" height="110" as="geometry" />
        </mxCell>
        <mxCell id="IXrwVdHXhNs5LP9SRVdd-28" style="edgeStyle=orthogonalEdgeStyle;rounded=0;sketch=1;hachureGap=4;jiggle=2;curveFitting=1;orthogonalLoop=1;jettySize=auto;html=1;exitX=0.5;exitY=0;exitDx=0;exitDy=0;exitPerimeter=0;entryX=0.5;entryY=1;entryDx=0;entryDy=0;fontFamily=Architects Daughter;fontSource=https%3A%2F%2Ffonts.googleapis.com%2Fcss%3Ffamily%3DArchitects%2BDaughter;fontStyle=0;fontSize=29;" edge="1" parent="1" source="IXrwVdHXhNs5LP9SRVdd-7" target="IXrwVdHXhNs5LP9SRVdd-8">
          <mxGeometry relative="1" as="geometry" />
        </mxCell>
        <mxCell id="IXrwVdHXhNs5LP9SRVdd-7" value="OpenQASM 3.0&amp;nbsp;&amp;nbsp;" style="strokeWidth=2;html=1;shape=mxgraph.flowchart.multi-document;whiteSpace=wrap;sketch=1;hachureGap=4;jiggle=2;curveFitting=1;fontFamily=Architects Daughter;fontSource=https%3A%2F%2Ffonts.googleapis.com%2Fcss%3Ffamily%3DArchitects%2BDaughter;fontStyle=0;fontSize=29;" vertex="1" parent="1">
          <mxGeometry x="-547.5" y="490" width="215" height="100" as="geometry" />
        </mxCell>
        <mxCell id="IXrwVdHXhNs5LP9SRVdd-14" style="edgeStyle=orthogonalEdgeStyle;rounded=0;sketch=1;hachureGap=4;jiggle=2;curveFitting=1;orthogonalLoop=1;jettySize=auto;html=1;exitX=1;exitY=0.25;exitDx=0;exitDy=0;entryX=0;entryY=0.5;entryDx=0;entryDy=0;fontFamily=Architects Daughter;fontSource=https%3A%2F%2Ffonts.googleapis.com%2Fcss%3Ffamily%3DArchitects%2BDaughter;fontStyle=0;fontSize=29;" edge="1" parent="1" source="IXrwVdHXhNs5LP9SRVdd-8" target="IXrwVdHXhNs5LP9SRVdd-10">
          <mxGeometry relative="1" as="geometry">
            <Array as="points">
              <mxPoint x="-320" y="360" />
              <mxPoint x="-320" y="360" />
            </Array>
          </mxGeometry>
        </mxCell>
        <mxCell id="IXrwVdHXhNs5LP9SRVdd-41" value="&lt;font style=&quot;font-size: 29px;&quot;&gt;&amp;nbsp;1&amp;nbsp;&lt;/font&gt;" style="edgeLabel;html=1;align=center;verticalAlign=middle;resizable=0;points=[];sketch=1;hachureGap=4;jiggle=2;curveFitting=1;fontFamily=Architects Daughter;fontSource=https%3A%2F%2Ffonts.googleapis.com%2Fcss%3Ffamily%3DArchitects%2BDaughter;" vertex="1" connectable="0" parent="IXrwVdHXhNs5LP9SRVdd-14">
          <mxGeometry x="-0.2571" y="-1" relative="1" as="geometry">
            <mxPoint x="7" y="-1" as="offset" />
          </mxGeometry>
        </mxCell>
        <mxCell id="IXrwVdHXhNs5LP9SRVdd-8" value="Grey-box Fuzzer" style="rounded=1;whiteSpace=wrap;html=1;absoluteArcSize=1;arcSize=14;strokeWidth=2;sketch=1;hachureGap=4;jiggle=2;curveFitting=1;fontFamily=Architects Daughter;fontSource=https%3A%2F%2Ffonts.googleapis.com%2Fcss%3Ffamily%3DArchitects%2BDaughter;fontStyle=0;fontSize=29;" vertex="1" parent="1">
          <mxGeometry x="-510" y="330" width="140" height="120" as="geometry" />
        </mxCell>
        <mxCell id="IXrwVdHXhNs5LP9SRVdd-9" value="" style="verticalLabelPosition=bottom;verticalAlign=top;html=1;strokeWidth=2;shape=mxgraph.arrows2.arrow;dy=0.58;dx=32;notch=0;sketch=1;hachureGap=4;jiggle=2;curveFitting=1;fontFamily=Architects Daughter;fontSource=https%3A%2F%2Ffonts.googleapis.com%2Fcss%3Ffamily%3DArchitects%2BDaughter;rotation=-90;fontStyle=0;fontSize=29;" vertex="1" parent="1">
          <mxGeometry x="-475" y="600" width="70" height="55" as="geometry" />
        </mxCell>
        <mxCell id="IXrwVdHXhNs5LP9SRVdd-20" style="edgeStyle=orthogonalEdgeStyle;rounded=0;sketch=1;hachureGap=4;jiggle=2;curveFitting=1;orthogonalLoop=1;jettySize=auto;html=1;exitX=1;exitY=0.5;exitDx=0;exitDy=0;fontFamily=Architects Daughter;fontSource=https%3A%2F%2Ffonts.googleapis.com%2Fcss%3Ffamily%3DArchitects%2BDaughter;fontStyle=0;fontSize=29;" edge="1" parent="1" source="IXrwVdHXhNs5LP9SRVdd-10">
          <mxGeometry relative="1" as="geometry">
            <mxPoint x="-20" y="360" as="targetPoint" />
          </mxGeometry>
        </mxCell>
        <mxCell id="IXrwVdHXhNs5LP9SRVdd-10" value="Braket" style="rounded=1;whiteSpace=wrap;html=1;absoluteArcSize=1;arcSize=14;strokeWidth=2;sketch=1;hachureGap=4;jiggle=2;curveFitting=1;fontFamily=Architects Daughter;fontSource=https%3A%2F%2Ffonts.googleapis.com%2Fcss%3Ffamily%3DArchitects%2BDaughter;fontStyle=0;fontSize=29;" vertex="1" parent="1">
          <mxGeometry x="-255" y="310" width="130" height="100" as="geometry" />
        </mxCell>
        <mxCell id="IXrwVdHXhNs5LP9SRVdd-16" style="edgeStyle=orthogonalEdgeStyle;rounded=0;sketch=1;hachureGap=4;jiggle=2;curveFitting=1;orthogonalLoop=1;jettySize=auto;html=1;exitX=1;exitY=0.75;exitDx=0;exitDy=0;entryX=0;entryY=0.5;entryDx=0;entryDy=0;fontFamily=Architects Daughter;fontSource=https%3A%2F%2Ffonts.googleapis.com%2Fcss%3Ffamily%3DArchitects%2BDaughter;fontStyle=0;fontSize=29;" edge="1" parent="1" source="IXrwVdHXhNs5LP9SRVdd-11" target="IXrwVdHXhNs5LP9SRVdd-12">
          <mxGeometry relative="1" as="geometry" />
        </mxCell>
        <mxCell id="IXrwVdHXhNs5LP9SRVdd-19" value="3" style="edgeLabel;html=1;align=center;verticalAlign=middle;resizable=0;points=[];sketch=1;hachureGap=4;jiggle=2;curveFitting=1;fontFamily=Architects Daughter;fontSource=https%3A%2F%2Ffonts.googleapis.com%2Fcss%3Ffamily%3DArchitects%2BDaughter;fontStyle=0;fontSize=29;" vertex="1" connectable="0" parent="IXrwVdHXhNs5LP9SRVdd-16">
          <mxGeometry x="0.5135" y="-1" relative="1" as="geometry">
            <mxPoint as="offset" />
          </mxGeometry>
        </mxCell>
        <mxCell id="IXrwVdHXhNs5LP9SRVdd-11" value="Qiskit" style="rounded=1;whiteSpace=wrap;html=1;absoluteArcSize=1;arcSize=14;strokeWidth=2;sketch=1;hachureGap=4;jiggle=2;curveFitting=1;fontFamily=Architects Daughter;fontSource=https%3A%2F%2Ffonts.googleapis.com%2Fcss%3Ffamily%3DArchitects%2BDaughter;fontStyle=0;fontSize=29;" vertex="1" parent="1">
          <mxGeometry x="-240" y="510" width="100" height="100" as="geometry" />
        </mxCell>
        <mxCell id="IXrwVdHXhNs5LP9SRVdd-12" value="Quantastica," style="rounded=1;whiteSpace=wrap;html=1;absoluteArcSize=1;arcSize=14;strokeWidth=2;sketch=1;hachureGap=4;jiggle=2;curveFitting=1;fontFamily=Architects Daughter;fontSource=https%3A%2F%2Ffonts.googleapis.com%2Fcss%3Ffamily%3DArchitects%2BDaughter;fontStyle=0;fontSize=29;" vertex="1" parent="1">
          <mxGeometry x="-285" y="700" width="190" height="100" as="geometry" />
        </mxCell>
        <mxCell id="IXrwVdHXhNs5LP9SRVdd-15" style="edgeStyle=orthogonalEdgeStyle;rounded=0;sketch=1;hachureGap=4;jiggle=2;curveFitting=1;orthogonalLoop=1;jettySize=auto;html=1;entryX=0;entryY=0.5;entryDx=0;entryDy=0;fontFamily=Architects Daughter;fontSource=https%3A%2F%2Ffonts.googleapis.com%2Fcss%3Ffamily%3DArchitects%2BDaughter;exitX=0.992;exitY=0.61;exitDx=0;exitDy=0;exitPerimeter=0;fontStyle=0;fontSize=29;" edge="1" parent="1" source="IXrwVdHXhNs5LP9SRVdd-8" target="IXrwVdHXhNs5LP9SRVdd-11">
          <mxGeometry relative="1" as="geometry">
            <mxPoint x="-360" y="480" as="sourcePoint" />
          </mxGeometry>
        </mxCell>
        <mxCell id="IXrwVdHXhNs5LP9SRVdd-18" value="2" style="edgeLabel;html=1;align=center;verticalAlign=middle;resizable=0;points=[];sketch=1;hachureGap=4;jiggle=2;curveFitting=1;fontFamily=Architects Daughter;fontSource=https%3A%2F%2Ffonts.googleapis.com%2Fcss%3Ffamily%3DArchitects%2BDaughter;fontStyle=0;fontSize=29;" vertex="1" connectable="0" parent="IXrwVdHXhNs5LP9SRVdd-15">
          <mxGeometry x="0.1617" y="3" relative="1" as="geometry">
            <mxPoint x="-4" as="offset" />
          </mxGeometry>
        </mxCell>
        <mxCell id="IXrwVdHXhNs5LP9SRVdd-21" value="Result&amp;nbsp;&amp;nbsp;" style="strokeWidth=2;html=1;shape=mxgraph.flowchart.multi-document;whiteSpace=wrap;sketch=1;hachureGap=4;jiggle=2;curveFitting=1;fontFamily=Architects Daughter;fontSource=https%3A%2F%2Ffonts.googleapis.com%2Fcss%3Ffamily%3DArchitects%2BDaughter;fontStyle=0;fontSize=29;" vertex="1" parent="1">
          <mxGeometry x="-50" y="330" width="128" height="60" as="geometry" />
        </mxCell>
        <mxCell id="IXrwVdHXhNs5LP9SRVdd-22" value="Result&amp;nbsp;&amp;nbsp;" style="strokeWidth=2;html=1;shape=mxgraph.flowchart.multi-document;whiteSpace=wrap;sketch=1;hachureGap=4;jiggle=2;curveFitting=1;fontFamily=Architects Daughter;fontSource=https%3A%2F%2Ffonts.googleapis.com%2Fcss%3Ffamily%3DArchitects%2BDaughter;fontStyle=0;fontSize=29;" vertex="1" parent="1">
          <mxGeometry x="-50" y="530" width="128" height="60" as="geometry" />
        </mxCell>
        <mxCell id="IXrwVdHXhNs5LP9SRVdd-23" value="Result&amp;nbsp;&amp;nbsp;" style="strokeWidth=2;html=1;shape=mxgraph.flowchart.multi-document;whiteSpace=wrap;sketch=1;hachureGap=4;jiggle=2;curveFitting=1;fontFamily=Architects Daughter;fontSource=https%3A%2F%2Ffonts.googleapis.com%2Fcss%3Ffamily%3DArchitects%2BDaughter;fontStyle=0;fontSize=29;" vertex="1" parent="1">
          <mxGeometry x="-50" y="713" width="128" height="60" as="geometry" />
        </mxCell>
        <mxCell id="IXrwVdHXhNs5LP9SRVdd-24" style="edgeStyle=orthogonalEdgeStyle;rounded=0;sketch=1;hachureGap=4;jiggle=2;curveFitting=1;orthogonalLoop=1;jettySize=auto;html=1;exitX=1;exitY=0.5;exitDx=0;exitDy=0;entryX=-0.023;entryY=0.633;entryDx=0;entryDy=0;entryPerimeter=0;fontFamily=Architects Daughter;fontSource=https%3A%2F%2Ffonts.googleapis.com%2Fcss%3Ffamily%3DArchitects%2BDaughter;fontStyle=0;fontSize=29;" edge="1" parent="1" source="IXrwVdHXhNs5LP9SRVdd-12" target="IXrwVdHXhNs5LP9SRVdd-23">
          <mxGeometry relative="1" as="geometry" />
        </mxCell>
        <mxCell id="IXrwVdHXhNs5LP9SRVdd-25" style="edgeStyle=orthogonalEdgeStyle;rounded=0;sketch=1;hachureGap=4;jiggle=2;curveFitting=1;orthogonalLoop=1;jettySize=auto;html=1;exitX=1;exitY=0.5;exitDx=0;exitDy=0;entryX=0;entryY=0.5;entryDx=0;entryDy=0;entryPerimeter=0;fontFamily=Architects Daughter;fontSource=https%3A%2F%2Ffonts.googleapis.com%2Fcss%3Ffamily%3DArchitects%2BDaughter;fontStyle=0;fontSize=29;" edge="1" parent="1" source="IXrwVdHXhNs5LP9SRVdd-11" target="IXrwVdHXhNs5LP9SRVdd-22">
          <mxGeometry relative="1" as="geometry" />
        </mxCell>
        <mxCell id="IXrwVdHXhNs5LP9SRVdd-26" value="" style="shape=doubleArrow;direction=south;whiteSpace=wrap;html=1;sketch=1;hachureGap=4;jiggle=2;curveFitting=1;fontFamily=Architects Daughter;fontSource=https%3A%2F%2Ffonts.googleapis.com%2Fcss%3Ffamily%3DArchitects%2BDaughter;fontStyle=0;fontSize=29;" vertex="1" parent="1">
          <mxGeometry x="-30" y="410" width="60" height="100" as="geometry" />
        </mxCell>
        <mxCell id="IXrwVdHXhNs5LP9SRVdd-27" value="" style="shape=doubleArrow;direction=south;whiteSpace=wrap;html=1;sketch=1;hachureGap=4;jiggle=2;curveFitting=1;fontFamily=Architects Daughter;fontSource=https%3A%2F%2Ffonts.googleapis.com%2Fcss%3Ffamily%3DArchitects%2BDaughter;fontStyle=0;fontSize=29;" vertex="1" parent="1">
          <mxGeometry x="-16" y="600" width="60" height="100" as="geometry" />
        </mxCell>
        <mxCell id="IXrwVdHXhNs5LP9SRVdd-43" value="&lt;font style=&quot;font-size: 25px;&quot;&gt;Jensen-Shannon&amp;nbsp;&lt;/font&gt;&lt;div&gt;&lt;font style=&quot;font-size: 25px;&quot;&gt;divergence&lt;/font&gt;&lt;/div&gt;" style="text;html=1;align=center;verticalAlign=middle;resizable=0;points=[];autosize=1;strokeColor=none;fillColor=none;fontFamily=Architects Daughter;fontSource=https%3A%2F%2Ffonts.googleapis.com%2Fcss%3Ffamily%3DArchitects%2BDaughter;" vertex="1" parent="1">
          <mxGeometry y="425" width="210" height="70" as="geometry" />
        </mxCell>
        <mxCell id="IXrwVdHXhNs5LP9SRVdd-44" value="&lt;font style=&quot;font-size: 25px;&quot;&gt;Jensen-Shannon&amp;nbsp;&lt;/font&gt;&lt;div&gt;&lt;font style=&quot;font-size: 25px;&quot;&gt;divergence&lt;/font&gt;&lt;/div&gt;" style="text;html=1;align=center;verticalAlign=middle;resizable=0;points=[];autosize=1;strokeColor=none;fillColor=none;fontFamily=Architects Daughter;fontSource=https%3A%2F%2Ffonts.googleapis.com%2Fcss%3Ffamily%3DArchitects%2BDaughter;" vertex="1" parent="1">
          <mxGeometry x="20" y="615" width="210" height="70" as="geometry" />
        </mxCell>
      </root>
    </mxGraphModel>
  </diagram>
</mxfile>
